# AST/ASF file generated using VICON BodyLanguage
# -----------------------------------------------
:version 1.10
:name VICON
:units
  mass 1.0
  length 0.45
  angle deg
:documentation
   .ast/.asf automatically generated from VICON data using
   VICON BodyBuilder and BodyLanguage model FoxedUp or BRILLIANT.MOD
:root
   order TX TY TZ RX RY RZ
   axis XYZ
   position 0 0 0  
   orientation 0 0 0 
:bonedata
  begin
     id 1 
     name lhipjoint
     direction 0.692814 -0.645514 0.321437 
     length 2.38754 
     axis 0 0 0  XYZ
  end
  begin
     id 2 
     name lfemur
     direction 0.34202 -0.939693 0  
     length 6.41921  
     axis 0 0 20  XYZ
    dof rx ry rz
    limits (-160.0 20.0)
           (-70.0 70.0)
           (-60.0 70.0)
  end
  begin
     id 3 
     name ltibia
     direction 0.34202 -0.939693 0   
     length 6.98247   
     axis 0 0 20   XYZ
    dof rx
    limits (-10.0 170.0)
  end
  begin
     id 4 
     name lfoot
     direction 0.0947186 -0.260237 0.960888   
     length 1.83034   
     axis -90 7.62852e-016 20   XYZ
    dof rx rz
    limits (-45.0 90.0)
           (-70.0 20.0)
  end
  begin
     id 5 
     name ltoes
     direction 1.53538e-011 -4.21952e-011 1   
     length 0.920499   
     axis -90 7.62852e-016 20   XYZ
    dof rx
    limits (-90.0 20.0)
  end
  begin
     id 6 
     name rhipjoint
     direction -0.631686 -0.693949 0.345555   
     length 2.2209  
     axis 0 0 0  XYZ 
  end
  begin
     id 7 
     name rfemur
     direction -0.34202 -0.939693 0   
     length 6.49542   
     axis 0 0 -20   XYZ
    dof rx ry rz
    limits (-160.0 20.0)
           (-70.0 70.0)
           (-70.0 60.0)
  end
  begin
     id 8 
     name rtibia
     direction -0.34202 -0.939693 0   
     length 7.21712   
     axis 0 0 -20   XYZ
    dof rx
    limits (-10.0 170.0)
 end
 begin
     id 9 
     name rfoot
     direction -0.0825378 -0.226771 0.970444   
     length 1.89724  
     axis -90 -7.62852e-016 -20   XYZ
    dof rx rz
    limits (-45.0 90.0)
           (-20.0 70.0)
  end
  begin
     id 10 
     name rtoes
     direction -1.53515e-011 -4.22016e-011 1   
     length 0.955868   
     axis -90 -7.62852e-016 -20   XYZ
    dof rx
    limits (-90.0 20.0)
  end
  begin
     id 11 
     name lowerback
     direction -0.0104711 0.984802 -0.173368   
     length 1.84931   
     axis 0 0 0   XYZ
    dof rx ry rz
    limits (-20.0 45.0)
           (-30.0 30.0)
           (-30.0 30.0)
  end
  begin
     id 12 
     name upperback
     direction -0.00286433 0.999996 -0.000382853   
     length 1.85768   
     axis 0 0 0   XYZ
    dof rx ry rz
    limits (-20.0 45.0)
           (-30.0 30.0)
           (-30.0 30.0)
  end
  begin
     id 13 
     name thorax
     direction 0.00167534 0.996793 0.0800069   
     length 1.92   
     axis 0 0 0   XYZ
    dof rx ry rz
    limits (-20.0 45.0)
           (-30.0 30.0)
           (-30.0 30.0)
  end
  begin
     id 14 
     name lowerneck
     direction -0.0672491 0.995415 0.068018   
     length 1.58923   
     axis 0 0 0   XYZ
    dof rx ry rz
    limits (-20.0 45.0)
           (-30.0 30.0)
           (-30.0 30.0)
  end
  begin
     id 15 
     name upperneck
     direction 0.0958019 0.982476 -0.159884   
     length 1.60189   
     axis 0 0 0   XYZ
    dof rx ry rz
    limits (-20.0 45.0)
           (-30.0 30.0)
           (-30.0 30.0)
  end
  begin
     id 16
     name head
     direction 0.032989 0.997338 -0.0650226  
     length 1.61681  
     axis 0 0 0   XYZ
    dof rx ry rz
    limits (-20.0 45.0)
           (-30.0 30.0)
           (-30.0 30.0)
  end
  begin
     id 17 
     name lclavicle
     direction 0.954279 0.298875 -0.00496069  
     length 2.99449  
     axis 0 0 0   XYZ
    dof ry rz
    limits (-20.0 10.0)
           (0.0 20.0)
  end
  begin
     id 18 
     name lhumerus
     direction 1 -4.48985e-011 -4.2057e-027   
     length 4.79185   
     axis 180 -30 -90   XYZ
    dof rx ry rz
    limits (-60.0 90.0)
           (-90.0 90.0)
           (-90.0 90.0)
  end
  begin
     id 19
     name lradius
     direction 1 -4.48945e-011 1.15441e-028   
     length 2.65553   
     axis 180 -30 -90   XYZ
    dof rx
    limits (-10.0 170.0)
  end
  begin
     id 20
     name lwrist
     direction 1 -4.4899e-011 4.8894e-028   
     length 1.32777   
     axis -2.56392e-016 90 90   XYZ
    dof ry
    limits (-180.0 0.0)
 end
  begin
     id 21 
     name lhand
     direction 1 -4.48908e-011 9.7788e-028   
     length 0.743904   
     axis -6.23971e-016 90 90   XYZ
    dof rx rz
    limits (-90.0 90.0)
           (-45.0 45.0)
  end
  begin
     id 22 
     name lfingers
     direction 1 -4.49068e-011 1.95576e-027   
     length 0.599754   
     axis -1.24794e-015 90 90   XYZ
    dof rx
    limits (0.0 90.0)
  end
  begin
     id 23
     name lthumb
     direction 0.707107 -6.34883e-011 0.707107   
     length 0.861131   
     axis -90 45 2.85299e-015   XYZ
    dof rx rz
    limits (-45.0 45.0)
           (-45.0 45.0)
  end
  begin
     id 24 
     name rclavicle
     direction -0.957921 0.286916 0.00811568   
     length 3.06817  
     axis 0 0 0   XYZ 
    dof ry rz
    limits (-10.0 20.0)
           (-20.0 0.0)
  end
  begin
     id 25 
     name rhumerus
     direction -1 -4.48971e-011 -3.07942e-027  
     length 4.77254   
     axis 180 30 90   XYZ
    dof rx ry rz
    limits (-90.0 60.0)
           (-90.0 90.0)
           (-90.0 90.0)
  end
  begin
     id 26 
     name rradius
     direction -1 -4.48957e-011 -9.6815e-028   
     length 2.75995   
     axis 180 30 90   XYZ
    dof rx
    limits (-10.0 170.0)
  end
  begin
     id 27 
     name rwrist
     direction -1 -4.48979e-011 4.8894e-028   
     length 1.37997   
     axis -2.56392e-016 -90 -90   XYZ
    dof ry
    limits (-180.0 0.0)
  end
  begin
     id 28
     name rhand
     direction -1 -4.48906e-011 9.7788e-028   
     length 0.701619   
     axis -6.23971e-016 -90 -90   XYZ
    dof rx rz
    limits (-90.0 90.0)
           (-45.0 45.0)
  end
  begin
     id 29
     name rfingers
     direction -1 -4.49018e-011 1.95576e-027   
     length 0.565663   
     axis -1.24794e-015 -90 -90   XYZ
    dof rx
    limits (0.0 90.0)
  end
  begin
     id 30
     name rthumb
     direction -0.707107 -6.34881e-011 0.707107   
     length 0.812183   
     axis -90 -45 -2.85299e-015   XYZ
    dof rx rz
    limits (-45.0 45.0)
           (-45.0 45.0)
  end
:hierarchy
  begin
    root lhipjoint rhipjoint lowerback
    lhipjoint lfemur
    lfemur ltibia
    ltibia lfoot
    lfoot ltoes
    rhipjoint rfemur
    rfemur rtibia
    rtibia rfoot
    rfoot rtoes
    lowerback upperback
    upperback thorax
    thorax lowerneck lclavicle rclavicle
    lowerneck upperneck
    upperneck head
    lclavicle lhumerus
    lhumerus lradius
    lradius lwrist
    lwrist lhand lthumb
    lhand lfingers
    rclavicle rhumerus
    rhumerus rradius
    rradius rwrist
    rwrist rhand rthumb
    rhand rfingers
  end

#!OML:ASF F:\VICON\USERDATA\INSTALL\rory3\rory3.ASF
:FULLY-SPECIFIED
:DEGREES
1
root 0.288343 16.1319 -0.0518498 -1.84072 -0.302428 -2.01864
lowerback 10.2658 0.868057 -0.530129
upperback -1.49993 1.06513 -0.343556
thorax -7.35609 0.534291 -0.238593
lowerneck -9.4113 -11.4264 -14.9595
upperneck 27.3599 -15.7053 8.05369
head 12.4931 -7.75979 3.17112
rclavicle 1.2452e-014 1.19271e-015
rhumerus -39.9046 3.61602 -86.7625
rradius 34.7908
rwrist 6.275
rhand -8.31958 11.0548
rfingers 7.12502
rthumb 17.6013 -18.1685
lclavicle 1.2452e-014 1.19271e-015
lhumerus -32.5119 2.69396 84.0816
lradius 25.2208
lwrist -0.72772
lhand -7.44314 13.0718
lfingers 7.12502
lthumb 18.4446 42.2173
rfemur 5.17072 12.275 19.6965
rtibia 8.72529
rfoot -8.51252 -14.1588
rtoes -10.5891
lfemur 9.35446 -8.73809 -15.2551
ltibia -1.59028e-014
lfoot -4.54564 7.76957
ltoes -11.9436
2
root 0.289072 16.1287 -0.0535214 -1.84289 -0.31839 -2.05831
lowerback 10.2396 0.860452 -0.485208
upperback -1.48849 1.06104 -0.343114
thorax -7.32801 0.530466 -0.262165
lowerneck -9.4585 -11.4119 -14.8889
upperneck 27.3752 -15.6809 8.01303
head 12.4942 -7.74481 3.14726
rclavicle 1.05915e-015 -4.77083e-015
rhumerus -39.8611 3.84343 -86.95
rradius 35.0318
rwrist 5.82726
rhand -8.38751 11.1584
rfingers 7.12502
rthumb 17.5359 -18.0707
lclavicle 1.05915e-015 -4.77083e-015
lhumerus -32.4302 2.12426 84.36
lradius 25.6549
lwrist -0.111036
lhand -7.45296 12.8367
lfingers 7.12502
lthumb 18.4351 41.9831
rfemur 5.38423 12.2892 19.7443
rtibia 8.26481
rfoot -8.10152 -14.1505
rtoes -13.697
lfemur 8.20123 -8.71437 -15.2985
ltibia 2.24543
lfoot -5.63456 7.55849
ltoes -11.9479
3
root 0.288753 16.1262 -0.0547859 -1.82899 -0.329802 -2.09727
lowerback 10.1765 0.854524 -0.467327
upperback -1.48482 1.05672 -0.331986
thorax -7.28784 0.527952 -0.258687
lowerneck -9.39875 -11.4056 -14.8741
upperneck 27.31 -15.6774 8.01462
head 12.4538 -7.74418 3.14973
rclavicle -1.46573e-014 7.15625e-015
rhumerus -39.8127 3.95782 -87.0633
rradius 35.2282
rwrist 5.72232
rhand -8.45827 11.2468
rfingers 7.12502
rthumb 17.4679 -17.9884
lclavicle -1.46573e-014 7.15625e-015
lhumerus -32.3836 1.60494 84.6291
lradius 26.2282
lwrist 0.340881
lhand -7.29656 13.1145
lfingers 7.12502
lthumb 18.5856 42.2466
rfemur 5.44375 12.2887 19.7885
rtibia 8.08198
rfoot -7.91885 -14.1524
rtoes -15.4485
lfemur 7.88854 -8.70132 -15.2744
ltibia 2.81602
lfoot -5.90568 7.50605
ltoes -12.1204
4
root 0.289419 16.1261 -0.0559806 -1.83698 -0.334644 -2.09778
lowerback 10.1325 0.842814 -0.478074
upperback -1.46196 1.03993 -0.334978
thorax -7.23839 0.52019 -0.252046
lowerneck -9.40664 -11.3978 -14.8529
upperneck 27.2746 -15.6697 8.02676
head 12.4389 -7.73722 3.15217
rclavicle -1.52319e-014 6.75868e-015
rhumerus -39.7091 4.12468 -87.199
rradius 35.3683
rwrist 5.60886
rhand -8.41109 11.2547
rfingers 7.12502
rthumb 17.5133 -17.9765
lclavicle -1.52319e-014 6.75868e-015
lhumerus -32.3125 1.09296 84.8762
lradius 26.8729
lwrist 0.61418
lhand -7.00138 13.8049
lfingers 7.12502
lthumb 18.8695 42.9096
rfemur 5.54284 12.2933 19.7864
rtibia 7.90994
rfoot -7.92202 -14.1512
rtoes -14.8707
lfemur 7.66037 -8.69538 -15.2945
ltibia 3.26849
lfoot -6.13296 7.48813
ltoes -12.2182
5
root 0.289342 16.1264 -0.056781 -1.85198 -0.342349 -2.09812
lowerback 10.132 0.843319 -0.492835
upperback -1.46265 1.03881 -0.333863
thorax -7.23912 0.520275 -0.242378
lowerneck -9.42554 -11.4056 -14.8318
upperneck 27.2908 -15.6766 8.00072
head 12.4456 -7.7404 3.13684
rclavicle -1.84186e-014 2.78299e-015
rhumerus -39.6788 4.23731 -87.3085
rradius 35.5787
rwrist 5.51678
rhand -8.41381 11.2034
rfingers 7.12502
rthumb 17.5106 -18.0279
lclavicle -1.84186e-014 2.78299e-015
lhumerus -32.1854 0.583864 85.121
lradius 27.1896
lwrist 0.958118
lhand -6.9941 14.0141
lfingers 7.12502
lthumb 18.8765 43.1182
rfemur 5.58815 12.3004 19.7965
rtibia 7.88022
rfoot -7.93427 -14.13
rtoes -14.7263
lfemur 7.63732 -8.68879 -15.2976
ltibia 3.34797
lfoot -6.10992 7.42655
ltoes -12.3125
6
root 0.28903 16.1267 -0.0576 -1.85927 -0.357247 -2.09755
lowerback 10.1295 0.838965 -0.522754
upperback -1.4706 1.03013 -0.320855
thorax -7.24696 0.517559 -0.210476
lowerneck -9.43288 -11.4058 -14.8704
upperneck 27.3301 -15.6726 8.00211
head 12.4666 -7.742 3.14333
rclavicle 1.52785e-014 5.1684e-015
rhumerus -39.6661 4.44549 -87.4305
rradius 35.826
rwrist 5.32956
rhand -8.44587 11.1921
rfingers 7.12502
rthumb 17.4798 -18.042
lclavicle 1.52785e-014 5.1684e-015
lhumerus -32.0622 0.158152 85.3647
lradius 27.3386
lwrist 1.45476
lhand -7.26188 13.6493
lfingers 7.12502
lthumb 18.6189 42.7782
rfemur 5.55303 12.3157 19.7972
rtibia 7.95187
rfoot -7.96512 -14.131
rtoes -14.8191
lfemur 7.73148 -8.67543 -15.2884
ltibia 3.18627
lfoot -5.98618 7.41419
ltoes -11.8296
7
root 0.288879 16.1264 -0.0586395 -1.85431 -0.357089 -2.05814
lowerback 10.0917 0.842953 -0.576357
upperback -1.45544 1.02917 -0.319002
thorax -7.21019 0.519361 -0.177394
lowerneck -9.45643 -11.4203 -14.9513
upperneck 27.3265 -15.6933 8.06707
head 12.4875 -7.75092 3.17452
rclavicle 1.69899e-015 1.19271e-014
rhumerus -39.5877 4.63732 -87.5145
rradius 36.0297
rwrist 5.09869
rhand -8.33615 11.1754
rfingers 7.12502
rthumb 17.5854 -18.0493
lclavicle 1.69899e-015 1.19271e-014
lhumerus -31.9365 -0.358667 85.6812
lradius 27.5418
lwrist 2.21486
lhand -7.73012 13.3225
lfingers 7.12502
lthumb 18.1685 42.494
rfemur 5.47219 12.3176 19.7513
rtibia 8.08827
rfoot -7.98275 -14.1482
rtoes -14.6589
lfemur 7.88694 -8.67491 -15.3166
ltibia 2.86058
lfoot -5.82658 7.45724
ltoes -11.8448
8
root 0.289271 16.1269 -0.0595315 -1.82978 -0.338699 -2.01809
lowerback 10.0333 0.83547 -0.623976
upperback -1.45116 1.01353 -0.32198
thorax -7.17298 0.513636 -0.150196
lowerneck -9.49878 -11.4289 -14.988
upperneck 27.3378 -15.6991 8.08586
head 12.5071 -7.7533 3.18347
rclavicle -9.27455e-015 8.74653e-015
rhumerus -39.542 4.81695 -87.5981
rradius 36.2096
rwrist 4.97498
rhand -8.2945 11.2286
rfingers 7.12502
rthumb 17.6255 -17.9925
lclavicle -9.27455e-015 8.74653e-015
lhumerus -31.8706 -0.707354 85.9057
lradius 27.894
lwrist 2.62243
lhand -7.93119 13.3354
lfingers 7.12502
lthumb 17.975 42.5247
rfemur 5.30223 12.3112 19.6947
rtibia 8.35006
rfoot -8.10215 -14.1631
rtoes -14.2272
lfemur 8.27976 -8.69275 -15.3257
ltibia 2.0332
lfoot -5.48348 7.51076
ltoes -11.6573
9
root 0.289023 16.1273 -0.0608559 -1.77331 -0.330385 -1.90059
lowerback 9.98684 0.833053 -0.769262
upperback -1.48536 0.99048 -0.348978
thorax -7.18493 0.507786 -0.0927527
lowerneck -9.49716 -11.4175 -14.9854
upperneck 27.3171 -15.6824 8.08913
head 12.496 -7.74553 3.18753
rclavicle 2.32236e-014 -4.77083e-015
rhumerus -39.5176 4.86853 -87.638
rradius 36.3929
rwrist 5.02665
rhand -8.13535 11.3507
rfingers 7.12502
rthumb 17.7786 -17.8566
lclavicle 2.32236e-014 -4.77083e-015
lhumerus -31.833 -0.911133 86.022
lradius 28.2854
lwrist 2.73852
lhand -7.82349 13.4272
lfingers 7.12502
lthumb 18.0787 42.607
rfemur 5.07166 12.3071 19.5504
rtibia 8.65869
rfoot -8.22857 -14.1475
rtoes -14.7267
lfemur 9.25361 -8.70038 -15.3679
ltibia -7.95139e-015
lfoot -4.4862 7.65477
ltoes -11.8804
10
root 0.289044 16.1295 -0.0619454 -1.72176 -0.362817 -1.7439
lowerback 9.95463 0.83444 -0.953421
upperback -1.53069 0.966829 -0.385058
thorax -7.21734 0.503128 -0.0232607
lowerneck -9.43761 -11.3944 -14.9613
upperneck 27.2654 -15.6408 8.03512
head 12.4495 -7.73328 3.17469
rclavicle -1.69122e-014 1.19271e-015
rhumerus -39.54 4.97169 -87.7078
rradius 36.6282
rwrist 4.92735
rhand -7.97331 11.5964
rfingers 7.12502
rthumb 17.9345 -17.5967
lclavicle -1.69122e-014 1.19271e-015
lhumerus -31.8022 -1.19361 86.1511
lradius 28.5487
lwrist 2.9922
lhand -7.92313 13.1543
lfingers 7.12502
lthumb 17.9828 42.3429
rfemur 4.89111 12.3453 19.36
rtibia 8.8793
rfoot -8.3625 -14.1489
rtoes -13.5071
lfemur 9.19457 -8.65767 -15.533
ltibia -1.43125e-014
lfoot -4.47404 7.65703
ltoes -11.8315
11
root 0.289604 16.133 -0.0631858 -1.67961 -0.437734 -1.70323
lowerback 9.93113 0.857835 -0.981454
upperback -1.57742 0.992286 -0.416618
thorax -7.2539 0.516195 -0.0449583
lowerneck -9.34678 -11.3809 -14.9419
upperneck 27.2154 -15.6361 8.04207
head 12.4088 -7.73239 3.18054
rclavicle -5.18704e-016 -1.98785e-015
rhumerus -39.5945 5.01319 -87.7984
rradius 36.8755
rwrist 4.81644
rhand -7.94157 11.6472
rfingers 7.12502
rthumb 17.9651 -17.5431
lclavicle -5.18704e-016 -1.98785e-015
lhumerus -31.7564 -1.46231 86.2317
lradius 28.7289
lwrist 3.13874
lhand -7.98817 12.7037
lfingers 7.12502
lthumb 17.9202 41.8981
rfemur 4.74676 12.4218 19.2968
rtibia 9.08177
rfoot -8.7073 -14.138
rtoes -9.92374
lfemur 9.15509 -8.57819 -15.5697
ltibia -3.18055e-015
lfoot -4.45555 7.64806
ltoes -11.8613
12
root 0.289819 16.1318 -0.0643272 -1.6915 -0.469342 -1.74283
lowerback 9.96122 0.853615 -0.95287
upperback -1.62529 0.990308 -0.405105
thorax -7.3219 0.514488 -0.0496503
lowerneck -9.23645 -11.3542 -14.9547
upperneck 27.2112 -15.6129 8.04746
head 12.3833 -7.72735 3.19514
rclavicle 6.56611e-015 7.15625e-015
rhumerus -39.661 5.13116 -87.8952
rradius 37.0626
rwrist 4.73142
rhand -8.02197 11.4572
rfingers 7.12502
rthumb 17.8877 -17.7402
lclavicle 6.56611e-015 7.15625e-015
lhumerus -31.8084 -1.6036 86.3003
lradius 29.0115
lwrist 3.23652
lhand -7.84351 12.6456
lfingers 7.12502
lthumb 18.0594 41.8272
rfemur 4.65839 12.4522 19.3434
rtibia 9.2918
rfoot -8.8772 -14.1241
rtoes -9.88318
lfemur 9.16477 -8.54974 -15.5201
ltibia -1.11319e-014
lfoot -4.45042 7.64739
ltoes -11.7974
13
root 0.291332 16.1304 -0.0649945 -1.68314 -0.471876 -1.66302
lowerback 9.96832 0.847435 -1.03146
upperback -1.66475 0.971054 -0.415056
thorax -7.36921 0.508342 -0.0133497
lowerneck -9.21521 -11.3383 -15.0314
upperneck 27.2664 -15.5945 8.08386
head 12.41 -7.72366 3.22488
rclavicle 7.47306e-015 -1.19271e-015
rhumerus -39.6588 5.24787 -87.9585
rradius 37.1529
rwrist 4.63084
rhand -8.15346 11.4205
rfingers 7.12502
rthumb 17.7612 -17.7883
lclavicle 7.47306e-015 -1.19271e-015
lhumerus -31.8432 -1.83946 86.4662
lradius 29.3506
lwrist 3.37517
lhand -7.95909 12.9567
lfingers 7.12502
lthumb 17.9482 42.1485
rfemur 4.57463 12.4581 19.2437
rtibia 9.36959
rfoot -8.68422 -14.1421
rtoes -13.3836
lfemur 9.16114 -8.54275 -15.6155
ltibia 1.27222e-014
lfoot -4.48324 7.63907
ltoes -11.6044
14
root 0.292182 16.1296 -0.0669919 -1.66878 -0.506953 -1.54654
lowerback 9.95133 0.854682 -1.13601
upperback -1.68176 0.965055 -0.451108
thorax -7.37885 0.509091 0.00856425
lowerneck -9.18815 -11.3199 -15.0819
upperneck 27.2472 -15.5813 8.15351
head 12.4066 -7.71639 3.26265
rclavicle 2.90101e-015 -1.07344e-014
rhumerus -39.6463 5.35576 -88.0389
rradius 37.2792
rwrist 4.51434
rhand -8.29246 11.338
rfingers 7.12502
rthumb 17.6274 -17.8829
lclavicle 2.90101e-015 -1.07344e-014
lhumerus -31.8261 -2.18289 86.6463
lradius 29.7455
lwrist 3.30679
lhand -8.39408 13.2388
lfingers 7.12502
lthumb 17.5296 42.4684
rfemur 4.50491 12.4976 19.1039
rtibia 9.39034
rfoot -8.52387 -14.1683
rtoes -15.1295
lfemur 9.14967 -8.50236 -15.7395
ltibia -7.95139e-015
lfoot -4.48983 7.62123
ltoes -11.5435
15
root 0.292493 16.1299 -0.0673704 -1.66336 -0.522897 -1.58702
lowerback 9.92972 0.844254 -1.08848
upperback -1.69354 0.957954 -0.443018
thorax -7.37824 0.503837 -0.00831065
lowerneck -9.18885 -11.3131 -15.1105
upperneck 27.2372 -15.5762 8.19004
head 12.4083 -7.7131 3.28158
rclavicle 4.13721e-015 1.59028e-015
rhumerus -39.6472 5.48304 -88.1068
rradius 37.4298
rwrist 4.42716
rhand -8.28622 11.1961
rfingers 7.12502
rthumb 17.6334 -18.0243
lclavicle 4.13721e-015 1.59028e-015
lhumerus -31.7884 -2.41648 86.7311
lradius 30.0754
lwrist 2.98318
lhand -8.68766 13.2117
lfingers 7.12502
lthumb 17.2471 42.4663
rfemur 4.47199 12.5121 19.1471
rtibia 9.42341
rfoot -8.55191 -14.1701
rtoes -14.981
lfemur 9.14186 -8.48742 -15.696
ltibia -2.54444e-014
lfoot -4.40316 7.61441
ltoes -12.0945
